# xmcd
#
# Track frame offsets: 
#        180
#        13809
#        42448
#        62923
#        85338
#        103184
#        121945
#        136569
#        154799
#        169953
#        185692
#        199121
#        217338
#        239307
#
# Disc length: 3447 seconds
#
# Revision: 2
# Processed by: cddbd v1.5.2PL0 Copyright (c) Steve Scherf et al.
# Submitted via: ExactAudioCopy v1.3
#
DISCID=cc0d750e
DTITLE=Aktorių Trio - Mūsų Kaime
DYEAR=1996
DGENRE=Folk
TTITLE0=Ką Daryti?
TTITLE1=Akacija
TTITLE2=Aš Mylėjau Tave Tau Nežinant
TTITLE3=Paukščiai
TTITLE4=Pavasaris
TTITLE5=Močiutė
TTITLE6=Trys Broliai
TTITLE7=Lietus
TTITLE8=Mažam Broliui
TTITLE9=Daugiau Nebeliko
TTITLE10=Žalia Žalia
TTITLE11=Baladė Apie Muzikantą
TTITLE12=Naminis Angelas
TTITLE13=Motinos Veidas
EXTD=
EXTT0=
EXTT1=
EXTT2=
EXTT3=
EXTT4=
EXTT5=
EXTT6=
EXTT7=
EXTT8=
EXTT9=
EXTT10=
EXTT11=
EXTT12=
EXTT13=
PLAYORDER=
